<?xml version="1.0" encoding="utf-8"?>
<!-- Generator: Adobe Illustrator 16.0.0, SVG Export Plug-In . SVG Version: 6.00 Build 0)  -->
<!DOCTYPE svg PUBLIC "-//W3C//DTD SVG 1.1//EN" "http://www.w3.org/Graphics/SVG/1.1/DTD/svg11.dtd">
<svg version="1.1" id="Layer_1" xmlns="http://www.w3.org/2000/svg" xmlns:xlink="http://www.w3.org/1999/xlink" x="0px" y="0px"
	 width="500px" height="100px" viewBox="0 0 500 100" enable-background="new 0 0 500 100" xml:space="preserve">
<rect fill="#F1F2F2" width="500" height="100"/>
<path fill="#D1D3D4" stroke="#ABABAB" stroke-miterlimit="10" d="M123,78c0,6.627-1.287,12-2.875,12H10.875C9.286,90,8,84.627,8,78
	V22c0-6.627,1.287-12,2.875-12h109.25c1.588,0,2.875,5.373,2.875,12V78z"/>
<path fill="#D1D3D4" stroke="#ABABAB" stroke-miterlimit="10" d="M246,78c0,6.627-1.287,12-2.875,12h-109.25
	C132.286,90,131,84.627,131,78V22c0-6.627,1.287-12,2.875-12h109.25c1.588,0,2.875,5.373,2.875,12V78z"/>
<path fill="#D1D3D4" stroke="#ABABAB" stroke-miterlimit="10" d="M369,78c0,6.627-1.287,12-2.875,12h-109.25
	C255.287,90,254,84.627,254,78V22c0-6.627,1.287-12,2.875-12h109.25c1.588,0,2.875,5.373,2.875,12V78z"/>
<path fill="#D1D3D4" stroke="#ABABAB" stroke-miterlimit="10" d="M491.5,78c0,6.627-1.287,12-2.875,12h-109.25
	c-1.588,0-2.875-5.373-2.875-12V22c0-6.627,1.287-12,2.875-12h109.25c1.588,0,2.875,5.373,2.875,12V78z"/>
</svg>
