<?xml version="1.0" encoding="utf-8"?>
<!-- Generator: Adobe Illustrator 16.0.0, SVG Export Plug-In . SVG Version: 6.00 Build 0)  -->
<!DOCTYPE svg PUBLIC "-//W3C//DTD SVG 1.1//EN" "http://www.w3.org/Graphics/SVG/1.1/DTD/svg11.dtd">
<svg version="1.1" id="Layer_1" xmlns="http://www.w3.org/2000/svg" xmlns:xlink="http://www.w3.org/1999/xlink" x="0px" y="0px"
	 width="500px" height="100px" viewBox="0 0 500 100" enable-background="new 0 0 500 100" xml:space="preserve">
<rect fill="#F1F2F2" width="500" height="100"/>
<path fill="#D1D3D4" stroke="#ABABAB" stroke-miterlimit="10" d="M325.5,78c0,6.627-1.689,12-3.774,12H178.274
	c-2.085,0-3.775-5.373-3.775-12V22c0-6.627,1.689-12,3.775-12h143.451c2.085,0,3.774,5.373,3.774,12V78z"/>
<path fill="#D1D3D4" stroke="#ABABAB" stroke-miterlimit="10" d="M163.5,78c0,6.627-1.689,12-3.774,12H16.274
	c-2.085,0-3.775-5.373-3.775-12V22c0-6.627,1.689-12,3.775-12h143.451c2.085,0,3.774,5.373,3.774,12V78z"/>
<path fill="#D1D3D4" stroke="#ABABAB" stroke-miterlimit="10" d="M488.5,78c0,6.627-1.689,12-3.774,12h-143.45
	c-2.086,0-3.775-5.373-3.775-12V22c0-6.627,1.689-12,3.775-12h143.45c2.085,0,3.774,5.373,3.774,12V78z"/>
</svg>
