<?xml version="1.0" encoding="utf-8"?>
<!-- Generator: Adobe Illustrator 16.0.0, SVG Export Plug-In . SVG Version: 6.00 Build 0)  -->
<!DOCTYPE svg PUBLIC "-//W3C//DTD SVG 1.1//EN" "http://www.w3.org/Graphics/SVG/1.1/DTD/svg11.dtd">
<svg version="1.1" id="Layer_1" xmlns="http://www.w3.org/2000/svg" xmlns:xlink="http://www.w3.org/1999/xlink" x="0px" y="0px"
	 width="500px" height="100px" viewBox="0 0 500 100" enable-background="new 0 0 500 100" xml:space="preserve">
<rect fill="#F1F2F2" width="500" height="100"/>
<path fill="#D1D3D4" stroke="#ABABAB" stroke-miterlimit="10" d="M487,78c0,6.627-3.397,12-7.588,12H191.087
	c-4.19,0-7.587-5.373-7.587-12V22c0-6.627,3.397-12,7.587-12h288.325c4.19,0,7.588,5.373,7.588,12V78z"/>
<path fill="#D1D3D4" stroke="#ABABAB" stroke-miterlimit="10" d="M170,78c0,6.627-1.757,12-3.925,12H16.924
	C14.756,90,13,84.627,13,78V22c0-6.627,1.757-12,3.925-12h149.15c2.168,0,3.925,5.373,3.925,12V78z"/>
</svg>
